<?xml version="1.0" encoding="utf-8"?>
<!-- Generator: Adobe Illustrator 16.0.0, SVG Export Plug-In . SVG Version: 6.00 Build 0)  -->
<!DOCTYPE svg PUBLIC "-//W3C//DTD SVG 1.1//EN" "http://www.w3.org/Graphics/SVG/1.1/DTD/svg11.dtd">
<svg version="1.1" id="Capa_1" xmlns="http://www.w3.org/2000/svg" xmlns:xlink="http://www.w3.org/1999/xlink" x="0px" y="0px"
	 width="28px" height="20px" viewBox="0 0 28 20" enable-background="new 0 0 28 20" xml:space="preserve">
<title>Group 5</title>
<desc>Created with Sketch.</desc>
<g id="Page-1">
	<g id="Search---Filters" transform="translate(-50.000000, -133.000000)">
		<g id="Group-5" transform="translate(50.000000, 128.000000)">
			<g enable-background="new    ">
				<path fill="#FFFFFF" d="M25.574,11.484c-0.396-0.367-0.777-0.642-1.145-0.825c-0.366-0.184-0.784-0.275-1.254-0.275
					c-0.527,0-0.932,0.11-1.21,0.33s-0.418,0.58-0.418,1.078c0,0.352,0.144,0.649,0.429,0.891c0.287,0.242,0.646,0.474,1.078,0.693
					s0.898,0.447,1.397,0.682c0.499,0.235,0.964,0.521,1.397,0.858c0.432,0.338,0.791,0.744,1.078,1.221
					c0.285,0.478,0.428,1.067,0.428,1.771c0,1.056-0.285,1.962-0.857,2.717c-0.572,0.756-1.43,1.258-2.574,1.507v2.288H21.79v-2.2
					c-0.646-0.073-1.323-0.253-2.035-0.539s-1.323-0.663-1.837-1.133l1.408-2.178c0.557,0.426,1.089,0.744,1.595,0.957
					c0.507,0.213,1.022,0.319,1.552,0.319c0.615,0,1.066-0.125,1.353-0.374c0.286-0.25,0.429-0.631,0.429-1.145
					c0-0.381-0.143-0.704-0.429-0.968s-0.646-0.518-1.078-0.759c-0.433-0.242-0.898-0.484-1.397-0.727
					c-0.498-0.242-0.965-0.531-1.396-0.869c-0.433-0.337-0.792-0.732-1.078-1.188s-0.429-1.012-0.429-1.672
					c0-1.086,0.297-1.983,0.891-2.695c0.595-0.711,1.411-1.169,2.453-1.375V5.61h2.134v2.222c0.704,0.103,1.32,0.315,1.848,0.638
					c0.529,0.323,1.005,0.712,1.431,1.166L25.574,11.484z"/>
			</g>
			<g enable-background="new    ">
				<path fill="#FFFFFF" d="M14.489,11.874c-0.306-0.283-0.601-0.496-0.884-0.638s-0.606-0.212-0.969-0.212
					c-0.408,0-0.72,0.085-0.935,0.255s-0.323,0.447-0.323,0.833c0,0.271,0.111,0.501,0.332,0.688
					c0.221,0.187,0.499,0.365,0.833,0.535s0.694,0.346,1.08,0.527c0.385,0.181,0.745,0.402,1.079,0.663s0.612,0.575,0.834,0.943
					c0.221,0.368,0.331,0.824,0.331,1.368c0,0.816-0.222,1.516-0.663,2.1s-1.105,0.972-1.989,1.164v1.769h-1.649v-1.7
					c-0.499-0.057-1.023-0.195-1.572-0.416c-0.55-0.222-1.023-0.513-1.419-0.876l1.088-1.683c0.431,0.328,0.841,0.575,1.232,0.739
					s0.791,0.246,1.199,0.246c0.476,0,0.824-0.096,1.045-0.289c0.221-0.192,0.332-0.486,0.332-0.884c0-0.294-0.11-0.544-0.332-0.748
					s-0.499-0.399-0.833-0.586c-0.334-0.188-0.694-0.374-1.08-0.562c-0.385-0.187-0.745-0.41-1.08-0.671s-0.612-0.567-0.833-0.918
					c-0.221-0.352-0.332-0.782-0.332-1.292c0-0.839,0.229-1.533,0.688-2.083s1.091-0.903,1.896-1.062V7.335h1.649v1.717
					c0.544,0.08,1.02,0.244,1.428,0.493s0.775,0.55,1.104,0.901L14.489,11.874z"/>
			</g>
			<g enable-background="new    ">
				<path fill="#FFFFFF" d="M4.904,13.264c-0.216-0.199-0.424-0.35-0.624-0.449c-0.2-0.101-0.428-0.15-0.684-0.15
					c-0.288,0-0.508,0.06-0.66,0.18s-0.228,0.316-0.228,0.588c0,0.192,0.078,0.354,0.234,0.486c0.156,0.132,0.352,0.258,0.588,0.378
					s0.49,0.244,0.762,0.372c0.271,0.128,0.526,0.284,0.762,0.468c0.236,0.185,0.432,0.406,0.588,0.666
					c0.156,0.261,0.234,0.582,0.234,0.966c0,0.576-0.156,1.07-0.468,1.482s-0.78,0.687-1.404,0.822v1.248H2.84v-1.2
					c-0.352-0.04-0.722-0.138-1.11-0.294c-0.388-0.156-0.722-0.362-1.002-0.618l0.768-1.188c0.304,0.232,0.594,0.406,0.87,0.522
					s0.558,0.174,0.846,0.174c0.336,0,0.582-0.067,0.738-0.204c0.156-0.136,0.234-0.344,0.234-0.624
					c0-0.208-0.078-0.384-0.234-0.527c-0.156-0.145-0.352-0.282-0.588-0.414c-0.236-0.132-0.49-0.265-0.762-0.396
					s-0.526-0.29-0.762-0.474c-0.236-0.185-0.432-0.4-0.588-0.648c-0.156-0.248-0.234-0.552-0.234-0.912
					c0-0.592,0.162-1.081,0.486-1.47c0.324-0.388,0.77-0.638,1.338-0.75V10.06h1.164v1.213c0.384,0.056,0.72,0.172,1.008,0.348
					s0.548,0.388,0.78,0.636L4.904,13.264z"/>
			</g>
		</g>
	</g>
</g>
</svg>
