<?xml version="1.0" encoding="UTF-8"?>
<svg width="15px" height="12px" viewBox="0 0 15 12" version="1.1" xmlns="http://www.w3.org/2000/svg" xmlns:xlink="http://www.w3.org/1999/xlink">
    <!-- Generator: Sketch 41.2 (35397) - http://www.bohemiancoding.com/sketch -->
    <title>Fill 6</title>
    <desc>Created with Sketch.</desc>
    <defs></defs>
    <g id="Page-1" stroke="none" stroke-width="1" fill="none" fill-rule="evenodd">
        <g id="Search---without-categories" transform="translate(-17.000000, -24.000000)" fill="#FFFFFF">
            <path d="M31.1109459,29.3213514 L18.8455405,29.3213514 L23.2444595,24.9224324 C23.4558108,24.7116216 23.4558108,24.3694595 23.2444595,24.1581081 C23.0336486,23.9472973 22.6914865,23.9472973 22.4801351,24.1581081 L17.1585135,29.4797297 C16.9471622,29.6910811 16.9471622,30.0327027 17.1585135,30.2440541 L22.4801351,35.5656757 C22.5860811,35.6710811 22.7239189,35.7240541 22.8622973,35.7240541 C23.0006757,35.7240541 23.1390541,35.6710811 23.2444595,35.5656757 C23.4558108,35.3543243 23.4558108,35.0121622 23.2444595,34.8013514 L18.8455405,30.4024324 L31.1109459,30.4024324 C31.4093243,30.4024324 31.6514865,30.1608108 31.6514865,29.8618919 C31.6514865,29.562973 31.4093243,29.3213514 31.1109459,29.3213514" id="Fill-6"></path>
        </g>
    </g>
</svg>