<?xml version="1.0" encoding="UTF-8"?>
<svg width="19px" height="22px" viewBox="0 0 19 22" version="1.1" xmlns="http://www.w3.org/2000/svg" xmlns:xlink="http://www.w3.org/1999/xlink">
    <!-- Generator: Sketch 41.2 (35397) - http://www.bohemiancoding.com/sketch -->
    <title>Group 7</title>
    <desc>Created with Sketch.</desc>
    <defs>
        <polygon id="path-1" points="10.4855391 0.455277778 0.111868119 0.455277778 0.111868119 18.2445694 10.4855391 18.2445694 10.4855391 0.455277778"></polygon>
    </defs>
    <g id="Page-1" stroke="none" stroke-width="1" fill="none" fill-rule="evenodd">
        <g id="Home---Iphone6" transform="translate(-212.000000, -532.000000)">
            <g id="Group-2" transform="translate(-1.000000, 519.000000)">
                <g id="Group-7" transform="translate(213.608879, 13.000000)">
                    <g id="Group-15">
                        <g id="Group-10">
                            <g id="Group-13" transform="translate(6.036759, 0.407407)">
                                <mask id="mask-2" fill="white">
                                    <use xlink:href="#path-1"></use>
                                </mask>
                                <g id="Clip-12"></g>
                                <path d="M5.21914352,3.04114352 L9.1480787,4.58419907 L5.23798611,14.537162 L1.30956019,12.9941065 L5.21914352,3.04114352 Z M6.95877315,1.47364352 C7.16451389,1.47364352 7.36719907,1.51234722 7.56122685,1.58822685 L8.42136574,1.926375 C9.11803241,2.19984722 9.51627315,2.89906019 9.45261574,3.60998611 L5.65303241,2.11785648 C5.95909722,1.71706944 6.43423611,1.47364352 6.95877315,1.47364352 L6.95877315,1.47364352 Z M2.80219907,16.3954491 L1.7694213,15.9895694 L1.31974537,14.0920694 L4.4644213,15.3280417 L2.80219907,16.3954491 Z M0.125532407,13.4707731 L1.16391204,17.8524398 C1.20210648,18.0128565 1.3156713,18.1452639 1.46895833,18.2073935 C1.5305787,18.231838 1.59525463,18.2445694 1.6594213,18.2445694 C1.7556713,18.2445694 1.85141204,18.2170694 1.93493056,18.1635972 L5.77270833,15.6982731 C5.86284722,15.6397083 5.93261574,15.5551713 5.9718287,15.4553565 L10.3010417,4.43498611 C10.8383102,3.06660648 10.1620139,1.51591204 8.79363426,0.978134259 L7.93349537,0.64049537 C7.62030093,0.517763889 7.29233796,0.455125 6.95877315,0.455125 C5.85418981,0.455125 4.87997685,1.11970833 4.47613426,2.14739352 L0.147430556,13.1677639 C0.109236111,13.2640139 0.101597222,13.3699398 0.125532407,13.4707731 L0.125532407,13.4707731 Z" id="Fill-11" fill="#9B9B9B" mask="url(#mask-2)"></path>
                            </g>
                            <path d="M17.8026852,12.6738843 C17.5215741,12.632125 17.2669444,12.8307361 17.22875,13.1087917 C16.9843056,14.889162 16.1893519,16.495875 14.9289352,17.7557824 C11.7521759,20.9325417 6.58268519,20.9335602 3.40592593,17.7557824 C1.86643519,16.2168009 1.01851852,14.1705972 1.01851852,11.9945324 C1.01902778,9.81846759 1.86694444,7.77175463 3.40592593,6.23277315 C4.66685185,4.97235648 6.27305556,4.17638426 8.05240741,3.93193981 C8.33046296,3.89374537 8.52550926,3.6370787 8.48731481,3.35851389 C8.44912037,3.07943981 8.19194444,2.88133796 7.91337963,2.92360648 C5.9125,3.19860648 4.10513889,4.093375 2.68583333,5.5121713 C0.954351852,7.24416204 0.000509259259,9.54601389 0,11.9945324 C0,14.4430509 0.954351852,16.7443935 2.68583333,18.4763843 C4.47282407,20.263375 6.82,21.1566157 9.16717593,21.1566157 C11.5143519,21.1566157 13.8625463,20.2628657 15.6490278,18.4763843 C17.0678241,17.057588 17.9631019,15.2497176 18.2375926,13.2473102 C18.2762963,12.9687454 18.08125,12.7115694 17.8026852,12.6738843" id="Fill-14" fill="#9B9B9B"></path>
                        </g>
                    </g>
                </g>
            </g>
        </g>
    </g>
</svg>