<?xml version="1.0" encoding="UTF-8"?>
<svg width="18px" height="15px" viewBox="0 0 18 15" version="1.1" xmlns="http://www.w3.org/2000/svg" xmlns:xlink="http://www.w3.org/1999/xlink">
    <!-- Generator: Sketch 41.2 (35397) - http://www.bohemiancoding.com/sketch -->
    <title>Page 1</title>
    <desc>Created with Sketch.</desc>
    <defs>
        <polygon id="path-1" points="0 0.2052 0 1.47186667 13.5885467 1.47186667 13.5885467 0.2052 6.86661376e-20 0.2052"></polygon>
        <polygon id="path-3" points="3.84496667 1.47199333 3.84496667 0.205326667 0.15599 0.205326667 0.15599 1.47199333 3.84496667 1.47199333"></polygon>
        <polygon id="path-5" points="9.63803148 1.31923333 9.63803148 0.0525666667 0.431015 0.0525666667 0.431015 1.31923333 9.63803148 1.31923333"></polygon>
    </defs>
    <g id="Page-1" stroke="none" stroke-width="1" fill="none" fill-rule="evenodd">
        <g id="Search---without-categories" transform="translate(-261.000000, -22.000000)">
            <g id="Page-1" transform="translate(261.000000, 22.000000)">
                <path d="M6.66114667,1.26666667 C5.75928,1.26666667 5.02524667,2.0007 5.02524667,2.90256667 C5.02524667,3.80506667 5.75928,4.5391 6.66114667,4.5391 C7.56301333,4.5391 8.29704667,3.80506667 8.29704667,2.90256667 C8.29704667,2.0007 7.56301333,1.26666667 6.66114667,1.26666667 M6.66114667,5.80576667 C5.06071333,5.80576667 3.75858,4.503 3.75858,2.90256667 C3.75858,1.30213333 5.06071333,0 6.66114667,0 C8.26158,0 9.56371333,1.30213333 9.56371333,2.90256667 C9.56371333,4.503 8.26158,5.80576667 6.66114667,5.80576667" id="Fill-1" fill="#FFFFFF"></path>
                <path d="M11.93903,10.3442333 C11.0371633,10.3442333 10.30313,11.0782667 10.30313,11.9807667 C10.30313,12.8826333 11.0371633,13.6166667 11.93903,13.6166667 C12.8408967,13.6166667 13.57493,12.8826333 13.57493,11.9807667 C13.57493,11.0782667 12.8408967,10.3442333 11.93903,10.3442333 M11.93903,14.8833333 C10.3385967,14.8833333 9.03646333,13.5812 9.03646333,11.9807667 C9.03646333,10.3803333 10.3385967,9.07756667 11.93903,9.07756667 C13.5394633,9.07756667 14.8415967,10.3803333 14.8415967,11.9807667 C14.8415967,13.5812 13.5394633,14.8833333 11.93903,14.8833333" id="Fill-3" fill="#FFFFFF"></path>
                <g id="Group-7" transform="translate(0.000000, 11.083333)">
                    <mask id="mask-2" fill="white">
                        <use xlink:href="#path-1"></use>
                    </mask>
                    <g id="Clip-6"></g>
                    <path d="M9.70277613,0.897433333 C9.70277613,0.654233333 9.73744936,0.424966667 9.78854675,0.2052 L0.455973367,0.2052 C0.204136229,0.2052 -0.000253333333,0.4883 -0.000253333333,0.838533333 C-0.000253333333,1.18876667 0.204136229,1.47186667 0.455973367,1.47186667 L9.76208561,1.47186667 C9.72741238,1.28756667 9.70277613,1.09693333 9.70277613,0.897433333" id="Fill-5" fill="#FFFFFF" mask="url(#mask-2)"></path>
                </g>
                <g id="Group-10" transform="translate(13.933333, 11.083333)">
                    <mask id="mask-4" fill="white">
                        <use xlink:href="#path-3"></use>
                    </mask>
                    <g id="Clip-9"></g>
                    <path d="M3.21182333,0.205326667 L0.15599,0.205326667 C0.226923333,0.425093333 0.275056667,0.65436 0.275056667,0.89756 C0.275056667,1.09706 0.240856667,1.28769333 0.19209,1.47199333 L3.21182333,1.47199333 C3.56142333,1.47199333 3.84515667,1.18889333 3.84515667,0.83866 C3.84515667,0.488426667 3.56142333,0.205326667 3.21182333,0.205326667" id="Fill-8" fill="#FFFFFF" mask="url(#mask-4)"></path>
                </g>
                <path d="M4.39159667,2.90256667 C4.39159667,2.6809 4.43339667,2.47126667 4.49229667,2.26923333 L0.633396667,2.26923333 C0.283796667,2.26923333 6.33333333e-05,2.55233333 6.33333333e-05,2.90256667 C6.33333333e-05,3.2528 0.283796667,3.5359 0.633396667,3.5359 L4.49229667,3.5359 C4.43276333,3.33386667 4.39159667,3.12423333 4.39159667,2.90256667" id="Fill-11" fill="#FFFFFF"></path>
                <g id="Group-15" transform="translate(8.233333, 2.216667)">
                    <mask id="mask-6" fill="white">
                        <use xlink:href="#path-5"></use>
                    </mask>
                    <g id="Clip-14"></g>
                    <path d="M9.1807613,0.0525666667 L0.431015,0.0525666667 C0.473553889,0.2546 0.503742778,0.464233333 0.503742778,0.6859 C0.503742778,0.907566667 0.473553889,1.1172 0.431015,1.31923333 L9.1807613,1.31923333 C9.43325019,1.31923333 9.6381687,1.03613333 9.6381687,0.6859 C9.6381687,0.335666667 9.43325019,0.0525666667 9.1807613,0.0525666667" id="Fill-13" fill="#FFFFFF" mask="url(#mask-6)"></path>
                </g>
            </g>
        </g>
    </g>
</svg>