<?xml version="1.0" encoding="UTF-8"?>
<svg width="23px" height="20px" viewBox="0 0 23 20" version="1.1" xmlns="http://www.w3.org/2000/svg" xmlns:xlink="http://www.w3.org/1999/xlink">
    <!-- Generator: Sketch 41.2 (35397) - http://www.bohemiancoding.com/sketch -->
    <title>Group 11</title>
    <desc>Created with Sketch.</desc>
    <defs></defs>
    <g id="Page-1" stroke="none" stroke-width="1" fill="none" fill-rule="evenodd">
        <g id="Home---Iphone6" transform="translate(-90.000000, -534.000000)" fill="#9B9B9B">
            <g id="Group-2" transform="translate(-1.000000, 519.000000)">
                <g id="Group-11" transform="translate(91.826637, 15.000000)">
                    <g id="Page-1">
                        <path d="M9.75609756,1.08401084 C4.97452575,1.08401084 1.08401084,4.97452575 1.08401084,9.75609756 C1.08401084,14.5376694 4.97452575,18.4281843 9.75609756,18.4281843 C11.7945799,18.4281843 13.7772358,17.703523 15.3382114,16.3880759 C15.4357724,16.3056911 15.5598916,16.2607046 15.6872629,16.2607046 L20.4547425,16.2607046 L17.9279133,13.4813008 C17.7891599,13.3289973 17.7490515,13.1105691 17.8243902,12.9186992 C18.2249322,11.897561 18.4281843,10.8330623 18.4281843,9.75609756 C18.4281843,4.97452575 14.5376694,1.08401084 9.75609756,1.08401084 M9.75609756,19.5121951 C4.37669377,19.5121951 0,15.1355014 0,9.75609756 C0,4.37669377 4.37669377,0 9.75609756,0 C15.1355014,0 19.5121951,4.37669377 19.5121951,9.75609756 C19.5121951,10.8574526 19.3241192,11.9463415 18.9523035,12.996748 L22.0807588,16.4379404 C22.2254743,16.596748 22.2623306,16.8260163 22.1756098,17.0216802 C22.0888889,17.2184282 21.8948509,17.3447154 21.6802168,17.3447154 L15.8823848,17.3447154 C14.1506775,18.7436314 11.9831978,19.5121951 9.75609756,19.5121951" id="Fill-1"></path>
                        <path d="M8.72753388,3.86336043 C8.43051491,3.86336043 8.14596206,3.98531165 7.94162602,4.2004878 C7.73728997,4.41620596 7.62943089,4.70563686 7.64460705,5.00265583 L7.9595122,11.1928997 C7.97848238,11.5695935 8.18823848,11.8926287 8.49176152,12.0725745 C7.88796748,12.4834146 7.50639566,13.1798916 7.50639566,14.0021138 C7.50639566,15.3289431 8.50151762,16.3294851 9.82075881,16.3294851 C11.1324119,16.3294851 12.1210298,15.3289431 12.1210298,14.0021138 C12.1053117,13.1679675 11.7340379,12.4801626 11.1475881,12.0736585 C11.4532791,11.8942547 11.6641192,11.5690515 11.6825474,11.1907317 L11.9833604,4.9999458 C11.9974526,4.70401084 11.8901355,4.41457995 11.6852575,4.19940379 C11.4809214,3.98531165 11.1969106,3.86336043 10.9004336,3.86336043 L8.72753388,3.86336043 Z M9.82075881,12.7576694 C10.5454201,12.7576694 11.0234688,13.2779946 11.037019,14.0021138 C11.037019,14.7132249 10.5589702,15.2454743 9.82075881,15.2454743 C9.08254743,15.2454743 8.5904065,14.7132249 8.5904065,14.0021138 C8.5904065,13.2779946 9.09663957,12.7576694 9.82075881,12.7576694 M10.9004336,4.94737127 L10.5996206,11.1381572 L9.04189702,11.1381572 L8.72753388,4.94737127 L10.9004336,4.94737127" id="Fill-3"></path>
                    </g>
                </g>
            </g>
        </g>
    </g>
</svg>