<?xml version="1.0" encoding="UTF-8"?>
<svg width="19px" height="21px" viewBox="0 0 19 21" version="1.1" xmlns="http://www.w3.org/2000/svg" xmlns:xlink="http://www.w3.org/1999/xlink">
    <!-- Generator: Sketch 41.2 (35397) - http://www.bohemiancoding.com/sketch -->
    <title>Group 12</title>
    <desc>Created with Sketch.</desc>
    <defs>
        <polygon id="path-1" points="9.07679098 9.76744186 0 9.76744186 0 0.0453415866 18.153582 0.0453415866 18.153582 9.76744186"></polygon>
    </defs>
    <g id="Page-1" stroke="none" stroke-width="1" fill="none" fill-rule="evenodd">
        <g id="Home---Iphone6" transform="translate(-271.000000, -533.000000)">
            <g id="Group-2" transform="translate(-1.000000, 519.000000)">
                <g id="Group-12" transform="translate(272.000000, 14.000000)">
                    <g id="Page-1">
                        <path d="M9.07692619,0.84934277 C7.07035389,0.84934277 5.43834176,2.93745197 5.43834176,5.50374115 C5.43834176,8.07003033 7.07035389,10.1581395 9.07692619,10.1581395 C11.0830738,10.1581395 12.7155106,8.07003033 12.7155106,5.50374115 C12.7155106,2.93745197 11.0830738,0.84934277 9.07692619,0.84934277 M9.07692619,11.0074823 C6.60194135,11.0074823 4.58899899,8.53844287 4.58899899,5.50374115 C4.58899899,2.46861476 6.60194135,0 9.07692619,0 C11.5514863,0 13.5648534,2.46861476 13.5648534,5.50374115 C13.5648534,8.53844287 11.5514863,11.0074823 9.07692619,11.0074823" id="Fill-1" fill="#9B9B9B"></path>
                        <g id="Group-5" transform="translate(0.000000, 10.616785)">
                            <mask id="mask-2" fill="white">
                                <use xlink:href="#path-1"></use>
                            </mask>
                            <g id="Clip-4"></g>
                            <path d="M9.15489585,9.76744186 C6.01784833,9.76744186 2.92624065,8.95079879 0.214289181,7.40541962 C0.0567360971,7.31581395 -0.0264994944,7.13575329 0.00747421638,6.9573913 L0.781650152,2.87842265 C0.804157735,1.90465116 1.59701921,1.11773509 2.57291405,1.1041456 L6.39410718,0.672679474 L6.45101314,0.387724975 C6.49687765,0.157977755 6.71983013,0.00637007078 6.95085137,0.0543579373 C7.18059858,0.0997977755 7.33008291,0.324024267 7.28379373,0.553771486 L7.16615976,1.1427907 C7.13006269,1.32412538 6.98100303,1.46129424 6.79754499,1.48210313 L2.64595753,1.95094034 C2.63024469,1.95263903 2.61453185,1.95348837 2.59839434,1.95348837 C2.06500708,1.95348837 1.63056825,2.38750253 1.63056825,2.92131446 C1.63056825,2.94764408 1.62802022,2.97439838 1.62334884,3.00030334 L0.898859454,6.81512639 C3.41843478,8.19148635 6.26628109,8.91809909 9.15489585,8.91809909 C11.9819333,8.91809909 14.7754216,8.220364 17.2550779,6.89836198 L16.5301638,2.99902932 C16.5254924,2.97312437 16.5229444,2.94721941 16.5229444,2.92131446 C16.5229444,2.38750253 16.0889302,1.95348837 15.5551183,1.95348837 C15.5394055,1.95348837 15.5236926,1.95263903 15.5075551,1.95094034 L11.3559676,1.48210313 C11.1725096,1.46129424 11.0234499,1.32412538 10.9873529,1.1427907 L10.8697189,0.553771486 C10.8238544,0.324024267 10.9729141,0.0997977755 11.2030859,0.0543579373 C11.4336825,0.00594539939 11.656635,0.157553084 11.7024995,0.387724975 L11.7594055,0.672679474 L15.5805986,1.1041456 C16.5569181,1.11773509 17.3497796,1.90507583 17.3718625,2.87927199 L18.1464631,7.0465723 C18.1795875,7.22578362 18.0950779,7.40626896 17.9354014,7.49502528 C15.2642184,8.98137513 12.227818,9.76744186 9.15489585,9.76744186" id="Fill-3" fill="#9B9B9B" mask="url(#mask-2)"></path>
                        </g>
                    </g>
                </g>
            </g>
        </g>
    </g>
</svg>