<?xml version="1.0" encoding="UTF-8"?>
<svg width="20px" height="19px" viewBox="0 0 20 19" version="1.1" xmlns="http://www.w3.org/2000/svg" xmlns:xlink="http://www.w3.org/1999/xlink">
    <!-- Generator: Sketch 41.2 (35397) - http://www.bohemiancoding.com/sketch -->
    <title>Fill 1</title>
    <desc>Created with Sketch.</desc>
    <defs></defs>
    <g id="Page-1" stroke="none" stroke-width="1" fill="none" fill-rule="evenodd">
        <g id="Home---Iphone6" transform="translate(-32.000000, -534.000000)" fill="#9B9B9B">
            <g id="Group-2" transform="translate(-1.000000, 519.000000)">
                <path d="M40.3464687,28.5048438 C36.9508125,28.5048438 34.1875,25.742125 34.1875,22.3464688 C34.1875,18.9502188 36.9508125,16.1875 40.3464687,16.1875 C43.742125,16.1875 46.5054375,18.9502188 46.5054375,22.3464688 C46.5054375,25.742125 43.742125,28.5048438 40.3464687,28.5048438 M52.2618437,32.9864688 L46.1325625,26.8571875 C47.1063125,25.6109062 47.6929375,24.0469688 47.6929375,22.3464688 C47.6929375,18.2959063 44.3970312,15 40.3464687,15 C36.2959063,15 33,18.2959063 33,22.3464688 C33,26.3970312 36.2959063,29.6923438 40.3464687,29.6923438 C42.2690312,29.6923438 44.0158438,28.943625 45.3268438,27.7305938 L51.4222812,33.8260312 C51.5380625,33.9418125 51.6900625,34 51.8420625,34 C51.9940625,34 52.1460625,33.9418125 52.2618437,33.8260312 C52.4934062,33.593875 52.4934062,33.2180313 52.2618437,32.9864688" id="Fill-1"></path>
            </g>
        </g>
    </g>
</svg>