<?xml version="1.0" encoding="UTF-8"?>
<svg width="21px" height="19px" viewBox="0 0 21 19" version="1.1" xmlns="http://www.w3.org/2000/svg" xmlns:xlink="http://www.w3.org/1999/xlink">
    <!-- Generator: Sketch 41.2 (35397) - http://www.bohemiancoding.com/sketch -->
    <title>Group 9</title>
    <desc>Created with Sketch.</desc>
    <defs>
        <polygon id="path-1" points="19.9999048 18.1026667 0 18.1026667 0 0 19.9999048 0"></polygon>
    </defs>
    <g id="Page-1" stroke="none" stroke-width="1" fill="none" fill-rule="evenodd">
        <g id="Home---Iphone6" transform="translate(-153.000000, -535.000000)">
            <g id="Group-2" transform="translate(-1.000000, 519.000000)">
                <g id="Group-9" transform="translate(154.217758, 16.000000)">
                    <g id="Page-1">
                        <mask id="mask-2" fill="white">
                            <use xlink:href="#path-1"></use>
                        </mask>
                        <g id="Clip-2"></g>
                        <path d="M6.00609524,0.952380952 C3.21942857,0.952380952 0.952285714,3.21952381 0.952285714,6.00619048 C0.952285714,11.4452381 8.6427619,16.2252381 10.0884762,17.0752381 C11.5146667,16.2195238 19.0475238,11.4380952 19.0475238,6.00619048 C19.0475238,3.21952381 16.780381,0.952380952 13.9941905,0.952380952 C13.2770476,0.952380952 12.5822857,1.10095238 11.9299048,1.39380952 C11.3308571,1.66285714 10.7970476,2.03904762 10.3437143,2.51238095 C10.2541905,2.60666667 10.1299048,2.65952381 9.99990476,2.65952381 C9.86990476,2.65952381 9.74609524,2.60666667 9.65609524,2.51238095 C9.2032381,2.03904762 8.66942857,1.66285714 8.06990476,1.39380952 C7.418,1.10095238 6.72371429,0.952380952 6.00609524,0.952380952 M10.0908571,18.1028571 C10.0118095,18.1028571 9.9327619,18.0833333 9.86133333,18.0438095 C9.45847619,17.8219048 -9.52380952e-05,12.5361905 -9.52380952e-05,6.00619048 C-9.52380952e-05,2.69428571 2.69419048,0 6.00609524,0 C6.85895238,0 7.68466667,0.176666667 8.46038095,0.525238095 C9.02561905,0.779047619 9.54180952,1.11333333 9.99990476,1.52190476 C10.4584762,1.11333333 10.9746667,0.779047619 11.5399048,0.525238095 C12.315619,0.176666667 13.1413333,0 13.9941905,0 C17.305619,0 19.9999048,2.69428571 19.9999048,6.00619048 C19.9999048,12.5328571 10.7189524,17.82 10.3241905,18.0419048 C10.2518095,18.082381 10.1713333,18.1028571 10.0908571,18.1028571" id="Fill-1" fill="#9B9B9B" mask="url(#mask-2)"></path>
                    </g>
                </g>
            </g>
        </g>
    </g>
</svg>