<?xml version="1.0" encoding="UTF-8"?>
<svg width="43px" height="37px" viewBox="0 0 43 37" version="1.1" xmlns="http://www.w3.org/2000/svg" xmlns:xlink="http://www.w3.org/1999/xlink">
    <!-- Generator: Sketch 41.2 (35397) - http://www.bohemiancoding.com/sketch -->
    <title>binoculars</title>
    <desc>Created with Sketch.</desc>
    <defs></defs>
    <g id="Page-1" stroke="none" stroke-width="1" fill="none" fill-rule="evenodd" opacity="0.5">
        <g id="Home" transform="translate(-138.000000, -1385.000000)" fill="#000000">
            <g id="binoculars" transform="translate(138.000000, 1385.000000)">
                <g id="Capa_1">
                    <g id="Group">
                        <path d="M26.3715746,4.51826923 C27.6202454,3.95793269 29.0359918,3.64663462 30.4341513,3.64663462 C31.2431493,3.64663462 32.0169734,3.74447115 32.7468303,3.93125 C33.0370143,4.00240385 33.3184049,3.75336538 33.2744376,3.45096154 L33.1689162,2.59711538 L33.1689162,2.59711538 C33.0809816,1.17403846 31.4717791,0.0266826923 29.5460123,0.0266826923 C27.5674847,0.0266826923 25.6768916,1.22740385 25.6768916,2.71274038 L25.7648262,4.13581731 C25.7912065,4.44711538 26.0989775,4.64278846 26.3715746,4.51826923 Z" id="Shape"></path>
                        <path d="M42.8505112,28.9862981 L42.806544,28.7283654 C42.806544,28.7105769 42.7977505,28.6927885 42.7977505,28.675 L41.1709611,20.3144231 C40.9599182,18.384375 39.5705521,16.7033654 37.5480573,15.6627404 L36.7742331,9.58798077 C36.7742331,7.00865385 33.8899796,4.90072115 30.4341513,4.90072115 C26.9783231,4.90072115 23.6895706,6.99086538 23.6895706,9.57908654 C23.6895706,9.70360577 23.698364,9.83701923 23.7159509,9.96153846 L23.7599182,10.6197115 C23.0740286,10.3706731 22.291411,10.2283654 21.4648262,10.2283654 C20.6294479,10.2283654 19.8468303,10.3706731 19.1521472,10.6286058 L19.1961145,9.96153846 C19.2137014,9.83701923 19.2224949,9.7125 19.2224949,9.57908654 C19.2224949,6.99975962 15.9249489,4.90072115 12.4779141,4.90072115 C9.02208589,4.90072115 6.13783231,7.00865385 6.13783231,9.58798077 L5.36400818,15.6627404 C3.34151329,16.6944712 1.95214724,18.384375 1.74110429,20.3144231 L0.114314928,28.675 C0.114314928,28.6927885 0.105521472,28.7105769 0.105521472,28.7283654 L0.0615541922,28.9862981 L0.0615541922,28.9862981 C0.0263803681,29.253125 0,29.5199519 0,29.7956731 C0,33.7625 4.10654397,36.9822115 9.16278119,36.9822115 C14.2190184,36.9822115 18.3255624,33.7625 18.3255624,29.7956731 L18.3255624,29.7956731 L18.3255624,29.7956731 L18.3255624,26.5048077 C19.2312883,26.9317308 20.3128834,27.171875 21.4648262,27.171875 C22.6167689,27.171875 23.6895706,26.9317308 24.5952965,26.5137019 L24.5952965,29.7956731 L24.5952965,29.7956731 L24.5952965,29.7956731 C24.5952965,33.7625 28.7018405,36.9822115 33.7580777,36.9822115 C38.8055215,36.9822115 42.9208589,33.7625 42.9208589,29.7956731 C42.9120654,29.5199519 42.8856851,29.253125 42.8505112,28.9862981 Z M9.16278119,34.3939904 C5.58384458,34.3939904 2.55889571,32.2860577 2.55889571,29.7956731 C2.55889571,27.2963942 5.58384458,25.1973558 9.16278119,25.1973558 C12.7417178,25.1973558 15.7666667,27.3052885 15.7666667,29.7956731 C15.7666667,32.2860577 12.7417178,34.3939904 9.16278119,34.3939904 Z M21.4648262,24.8949519 C19.9611452,24.8949519 18.7388548,24.0322115 18.7388548,22.9737981 C18.7388548,21.9153846 19.9611452,21.0526442 21.4648262,21.0526442 C22.9685072,21.0526442 24.1907975,21.9153846 24.1907975,22.9737981 C24.1907975,24.0322115 22.9685072,24.8949519 21.4648262,24.8949519 Z M33.7492843,34.3939904 C30.1703476,34.3939904 27.1453988,32.2860577 27.1453988,29.7956731 C27.1453988,27.2963942 30.1703476,25.1973558 33.7492843,25.1973558 C37.3282209,25.1973558 40.3531697,27.3052885 40.3531697,29.7956731 C40.3531697,32.2860577 37.3282209,34.3939904 33.7492843,34.3939904 Z" id="Shape"></path>
                        <path d="M10.1564417,3.93125 C10.8862986,3.74447115 11.6689162,3.64663462 12.4691207,3.64663462 C13.8672802,3.64663462 15.29182,3.95793269 16.5316973,4.51826923 C16.8042945,4.64278846 17.1120654,4.44711538 17.1296524,4.14471154 L17.2175869,2.72163462 C17.2175869,1.23629808 15.3269939,0.0355769231 13.3484663,0.0355769231 C11.4226994,0.0355769231 9.82229039,1.18293269 9.72556237,2.60600962 L9.72556237,2.60600962 L9.6200409,3.45985577 C9.58486708,3.75336538 9.85746421,4.01129808 10.1564417,3.93125 Z" id="Shape"></path>
                    </g>
                </g>
            </g>
        </g>
    </g>
</svg>