<?xml version="1.0" encoding="UTF-8"?>
<svg width="31px" height="37px" viewBox="0 0 31 37" version="1.1" xmlns="http://www.w3.org/2000/svg" xmlns:xlink="http://www.w3.org/1999/xlink">
    <!-- Generator: Sketch 41.2 (35397) - http://www.bohemiancoding.com/sketch -->
    <title>fair-stand</title>
    <desc>Created with Sketch.</desc>
    <defs></defs>
    <g id="Page-1" stroke="none" stroke-width="1" fill="none" fill-rule="evenodd" opacity="0.5">
        <g id="Home" transform="translate(-145.000000, -872.000000)" fill="#000000">
            <g id="fair-stand" transform="translate(145.000000, 872.000000)">
                <g id="Capa_1">
                    <g id="Layer_5_38_">
                        <path d="M30.6746535,6.42257493 C30.8223894,6.783703 30.6200198,7.07909809 30.225,7.07909809 L0.753412541,7.07909809 C0.358392739,7.07909809 0.147735974,6.78057766 0.285343234,6.41571935 L2.45350165,0.663479564 C2.59110891,0.298621253 3.02684818,0 3.42176568,0 L27.3292112,0 C27.724231,0 28.1682574,0.295294278 28.3160957,0.656321526 L30.6746535,6.42257493 Z" id="Shape"></path>
                        <path d="M0.0351947195,10.6905804 C0.0351947195,12.1073678 1.20071287,13.2557793 2.63847855,13.2557793 C3.72081848,13.2557793 4.64856766,12.6050027 5.04113201,11.6787929 C5.1189901,11.4952044 5.2989538,11.4978256 5.37752805,11.682624 C5.7710132,12.6068174 6.69794389,13.2557793 7.77864686,13.2557793 C8.86405611,13.2557793 9.79426073,12.6010708 10.1849835,11.6705259 C10.2608977,11.4894578 10.4324719,11.4749401 10.5041914,11.6500599 C10.8896964,12.5913924 11.8255281,13.2557793 12.9190198,13.2557793 C14.0124092,13.2557793 14.9480363,12.591594 15.3335413,11.6501608 C15.4052607,11.4750409 15.5730495,11.4750409 15.644769,11.6501608 C16.0303762,12.591594 16.9661056,13.2557793 18.0593927,13.2557793 C19.1527822,13.2557793 20.0885116,12.591594 20.4739142,11.6501608 C20.5458383,11.4750409 20.7133201,11.4750409 20.784835,11.6501608 C21.1704422,12.5914932 22.1062739,13.2558801 23.1997657,13.2558801 C24.2932574,13.2558801 25.2289868,12.5916948 25.6144917,11.6502616 C25.6860066,11.4751417 25.8537954,11.4751417 25.9253102,11.6502616 C26.3109175,12.591594 27.2465446,13.2559809 28.3401386,13.2559809 C29.7779043,13.2559809 30.9434224,12.1074687 30.9434224,10.690782 L30.9434224,9.60638965 C30.9434224,9.60638965 30.9434224,9.10018529 30.4009736,9.10018529 L0.755561056,9.10018529 C0.0352970297,9.10018529 0.0352970297,9.6263515 0.0352970297,9.6263515 L0.0351947195,10.6905804 Z" id="Shape"></path>
                        <path d="M30.1881683,34.5500354 C30.1881683,34.5495313 30.1882706,34.5491281 30.1882706,34.5487248 L30.1882706,24.3768501 C30.1882706,23.7598474 29.6757987,23.2549537 29.0498647,23.2549537 L1.92865017,23.2549537 C1.30251155,23.2549537 0.790141914,23.7598474 0.790141914,24.3768501 L0.790141914,34.5487248 L0.790141914,34.9968583 C0.790141914,36.0915341 1.69067657,36.9788283 2.80145875,36.9788283 C3.5629538,36.9788283 4.2239802,36.5610409 4.5649802,35.945752 C4.61367987,35.8577384 4.64866997,35.6706213 5.13259736,35.6706213 L25.877429,35.6706213 C26.3328119,35.6706213 26.4168086,35.8554196 26.4646898,35.9421226 C26.8050759,36.559327 27.4672277,36.9788283 28.2301551,36.9788283 C29.3409373,36.9788283 30.1883729,36.0915341 30.1883729,34.9968583 C30.1883729,34.8430109 30.1881683,34.8038937 30.1881683,34.5500354 Z" id="Shape"></path>
                        <path d="M6.05942574,14.9998202 C6.04581848,14.8170381 5.89143234,14.6713569 5.70287459,14.6713569 L4.66555116,14.6713569 C4.4679901,14.6713569 4.30644224,14.8305477 4.30644224,15.0252262 L4.30644224,15.0298638 L4.30644224,20.8879619 L4.30644224,20.8925995 C4.30644224,21.0873787 4.46809241,21.2464687 4.66555116,21.2464687 L5.70287459,21.2464687 C5.89153465,21.2464687 6.04592079,21.1007875 6.05942574,20.9180054 C6.06034653,20.9149809 6.0619835,20.9119564 6.0619835,20.9088311 L6.0619835,20.8925995 L6.0619835,15.0251253 L6.0619835,15.0088937 C6.0619835,15.0057684 6.06034653,15.0028447 6.05942574,14.9998202 Z" id="Shape"></path>
                        <path d="M26.7674257,14.9998202 C26.7538185,14.8170381 26.5994323,14.6713569 26.4108746,14.6713569 L25.3735512,14.6713569 C25.1758878,14.6713569 25.0143399,14.8305477 25.0143399,15.0252262 L25.0143399,15.0298638 L25.0143399,20.8879619 L25.0143399,20.8925995 C25.0143399,21.0873787 25.1758878,21.2464687 25.3735512,21.2464687 L26.4108746,21.2464687 C26.5995347,21.2464687 26.7539208,21.1007875 26.7674257,20.9180054 C26.7683465,20.9149809 26.7699835,20.9119564 26.7699835,20.9088311 L26.7699835,20.8925995 L26.7699835,15.0251253 L26.7699835,15.0088937 C26.7700858,15.0057684 26.7682442,15.0028447 26.7674257,14.9998202 Z" id="Shape"></path>
                    </g>
                </g>
            </g>
        </g>
    </g>
</svg>