<?xml version="1.0" encoding="UTF-8"?>
<svg width="35px" height="35px" viewBox="0 0 35 35" version="1.1" xmlns="http://www.w3.org/2000/svg" xmlns:xlink="http://www.w3.org/1999/xlink">
    <!-- Generator: Sketch 41.2 (35397) - http://www.bohemiancoding.com/sketch -->
    <title>Page 1 Copy</title>
    <desc>Created with Sketch.</desc>
    <defs></defs>
    <g id="Page-1" stroke="none" stroke-width="1" fill="none" fill-rule="evenodd">
        <g id="Profile---iphone-6" transform="translate(-10.000000, -13.000000)" fill="#FFFFFF">
            <g id="Page-1-Copy" transform="translate(10.000000, 13.000000)">
                <g id="Group-3" transform="translate(0.000000, 0.159269)">
                    <path d="M7.94068333,25.5066923 L6.38901667,26.3928462 L4.28862778,22.7951538 L5.84146111,21.909 L4.93146111,20.3501538 C4.54840556,19.6947692 4.22601667,19.0693846 3.96390556,18.4720769 C3.70257222,17.8755385 3.57073889,17.2259231 3.57035,16.5228462 C3.56685,16.3324615 3.57385,16.1416923 3.59173889,15.9505385 C3.60962778,15.7597692 3.64073889,15.5551538 3.68662778,15.3374615 C3.86279444,14.3843846 4.22873889,13.5251538 4.78446111,12.7597692 C5.34018333,11.9947692 6.03823889,11.3724615 6.87940556,10.8924615 C7.21851667,10.6986154 7.56073889,10.5463077 7.90490556,10.4347692 C8.24946111,10.3236154 8.62201667,10.2601538 9.02218333,10.244 L11.2061833,13.9859231 C11.1322944,14.0070769 11.04985,14.0224615 10.9584611,14.0316923 C10.8670722,14.0409231 10.7760722,14.0609231 10.6862389,14.0909231 C10.4610722,14.1128462 10.2487389,14.1543846 10.0476833,14.2159231 C9.84585,14.2774615 9.64051667,14.3682308 9.43012778,14.4882308 C8.86429444,14.8109231 8.56640556,15.2051538 8.53607222,15.6701538 C8.50573889,16.1355385 8.69590556,16.7193846 9.10657222,17.4224615 L10.2541833,19.3897692 L12.0846833,18.3447692 L13.4306278,17.5759231 L12.5206278,16.0170769 C12.13835,15.3613077 11.8159611,14.7359231 11.55385,14.139 C11.2917389,13.5428462 11.1602944,12.8924615 11.1595167,12.1897692 C11.1567944,11.9997692 11.1641833,11.809 11.1816833,11.6174615 C11.1995722,11.4266923 11.2302944,11.2220769 11.2757944,11.0043846 C11.4527389,10.0509231 11.8190722,9.19169231 12.3740167,8.42669231 C12.9301278,7.66169231 13.6281833,7.03938462 14.4689611,6.55938462 C14.8084611,6.36553846 15.1502944,6.21323077 15.4952389,6.10169231 C15.8394056,5.99053846 16.21235,5.92707692 16.6125167,5.91130769 L18.7961278,9.65246154 C18.7222389,9.67361538 18.6397944,9.689 18.5484056,9.69823077 C18.4570167,9.70784615 18.3660167,9.72823077 18.2757944,9.75823077 C18.0510167,9.77938462 17.8382944,9.82130769 17.6376278,9.88284615 C17.4357944,9.94438462 17.2304611,10.0347692 17.0204611,10.1547692 C16.4546278,10.4778462 16.1559611,10.8720769 16.1260167,11.3370769 C16.0952944,11.8020769 16.28585,12.3866923 16.6969056,13.0897692 L17.8445167,15.0563077 L20.9241278,13.2982308 L21.0209611,13.2428462 L20.1109611,11.684 C19.7282944,11.0282308 19.4055167,10.4024615 19.1437944,9.80630769 C18.8820722,9.20976923 18.7502389,8.55938462 18.74985,7.85630769 C18.74635,7.66630769 18.7537389,7.47592308 18.7712389,7.28438462 C18.7891278,7.09361538 18.8206278,6.889 18.8661278,6.67092308 C19.0422944,5.71823077 19.4082389,4.85861538 19.9639611,4.09323077 C20.5200722,3.32861538 21.2181278,2.70630769 22.0589056,2.22630769 C22.3980167,2.03246154 22.7406278,1.87976923 23.0844056,1.76823077 C23.4141833,1.66207692 23.7711833,1.60246154 24.1519056,1.58323077 C19.3079056,-0.436 13.5997944,-0.269461538 8.69668333,2.53015385 C0.381072222,7.27746154 -2.46870556,17.7932308 2.33135,26.0170769 C4.73740556,30.1397692 8.60918333,32.9032308 12.9200167,34.0374615 L7.94068333,25.5066923 Z" id="Fill-1"></path>
                </g>
                <path d="M32.4452722,8.98476923 C30.4887722,5.63246154 27.5631611,3.17938462 24.22105,1.76938462 L26.3859944,5.479 C26.3121056,5.49976923 26.2296611,5.51515385 26.1378833,5.52438462 C26.0468833,5.534 25.9558833,5.554 25.8656611,5.584 C25.6408833,5.60592308 25.4281611,5.64746154 25.2271056,5.70861538 C25.0256611,5.77092308 24.8203278,5.86092308 24.6099389,5.98092308 C24.0437167,6.304 23.7462167,6.69823077 23.7158833,7.16323077 C23.68555,7.62861538 23.8757167,8.21246154 24.2863833,8.91553846 L25.4339944,10.8828462 L28.5139944,9.12438462 L30.6132167,12.7216923 L27.5339944,14.4797692 L32.6152167,23.1859231 L28.2017167,25.7055385 L23.1201056,16.9997692 L23.0236611,17.0547692 L19.94405,18.8132308 L25.0256611,27.5186154 L20.6121611,30.0382308 L15.5309389,21.3324615 L13.9788833,22.2186154 L12.3544944,23.1459231 L17.4357167,31.8520769 L13.2077167,34.2655385 C17.4197722,35.2986154 22.0246056,34.7874615 26.07955,32.4720769 C34.39555,27.7247692 37.2453278,17.2086154 32.4452722,8.98476923" id="Fill-4"></path>
            </g>
        </g>
    </g>
</svg>